<?xml version="1.0" standalone="no"?>
<!DOCTYPE svg PUBLIC "-//W3C//DTD SVG 20010904//EN"
 "http://www.w3.org/TR/2001/REC-SVG-20010904/DTD/svg10.dtd">
<svg version="1.0" xmlns="http://www.w3.org/2000/svg"
 width="512.000000pt" height="512.000000pt" viewBox="0 0 512.000000 512.000000"
 preserveAspectRatio="xMidYMid meet">

<g transform="translate(0.000000,512.000000) scale(0.100000,-0.100000)"
fill="#000000" stroke="none">
<path d="M3135 4120 c-214 -45 -401 -146 -551 -296 -58 -58 -148 -170 -156
-195 -2 -6 -36 -1 -93 16 -117 35 -284 44 -400 22 -182 -34 -337 -120 -467
-255 -68 -72 -168 -219 -168 -248 0 -8 -43 -10 -150 -6 -167 5 -259 -5 -385
-45 -295 -93 -549 -321 -671 -603 -271 -624 80 -1334 743 -1503 l88 -22 1715
0 1715 0 88 28 c329 103 561 342 648 667 33 123 33 339 0 460 -84 312 -319
563 -614 656 -57 18 -59 19 -53 49 14 75 18 286 6 366 -67 460 -431 834 -889
914 -115 21 -295 18 -406 -5z m392 -195 c362 -76 625 -342 698 -704 23 -112
17 -282 -15 -407 l-23 -91 19 -34 c21 -36 30 -40 168 -73 241 -57 438 -250
517 -506 34 -108 34 -292 0 -400 -80 -260 -273 -446 -529 -511 -76 -19 -114
-19 -1757 -17 l-1680 3 -75 23 c-304 94 -534 325 -620 622 -31 107 -38 298
-15 411 35 175 118 332 240 455 111 112 221 179 375 229 111 36 334 47 443 21
38 -9 79 -16 92 -16 38 0 81 44 100 102 30 93 85 180 164 258 127 126 283 190
460 190 104 0 182 -18 287 -64 118 -51 134 -44 214 94 51 89 207 248 292 298
85 50 204 99 283 116 92 19 275 20 362 1z"/>
</g>
</svg>
